/* XPM */
static char *result[] = {
/* columns rows colors chars-per-pixel */
"32 32 9 1 ",
"  c #353540",
". c #735B42",
"X c #CA5954",
"o c #E39347",
"O c #EEB551",
"+ c #918D8D",
"@ c #D2C1B1",
"# c #EDE4DA",
"$ c None",
/* pixels */
"$$$$$$$$$$$$$$$$$$$$$$$$$$$$$$$$",
"$$$$$$$$$$$$$$$$$$$$$$$$$$$$$$$$",
"$$$$$$$$$$$$$$$$$$$$$$$$$$$$$$$$",
"$$$$$$$$$$$$$$$$$$$$$$$$$$$$$$$$",
"$$$$$$$$$$$$$$$$$$$$$$$$$$$$$$$$",
"$$$$$$$$$$$$$$$$$$$$$$$$$$$$$$$$",
"$$$$$$$$$$$$$$$$$$$$$$$$$$$$$$$$",
"$$$$$$$$$$$          $$$$$$$$$$$",
"$$$$$$$$$$$ OO O# ## $$$$$$$$$$$",
"$$$$$$$$$$$ OOOOOOO# $$$$$$$$$$$",
"$$$$$$$$$$$ #ooooooo $$$$$$$$$$$",
"$$$$$$$$$$$ oo@@@@@@ $$$$$$$$$$$",
"$$$$$$$$$$$ o@@@@@@@ $$$$$$$$$$$",
"$$$$$$$$$$$ o@  @@@  $$$$$$$$$$$",
"$$$$$$$$$$$ o@  @@@  $$$$$$$$$$$",
"$$$$$$$$$$$ o@@@@@@@ $$$$$$$$$$$",
"$$$$$$$$$$$ oo@ooooo $$$$$$$$$$$",
"$$$$$$$$$$  oooo@@@o $$$$$$$$$$$",
"$$$$$$$$$$ XXXOOOOOO $$$$$$$$$$$",
"$$$$$$$$$  XXXO+++++ $$$$$$$$$$$",
"$$$$$$$$$ XXXOO+++++ $$$$$$$$$$$",
"$$$$$$$$$ OOOO ..    $$$$$$$$$$$",
"$$$$$$$$$         $$$$$$$$$$$$$$",
"$$$$$$$$$$$$$$$$$$$$$$$$$$$$$$$$",
"$$$$$$$$$$$$$$$$$$$$$$$$$$$$$$$$",
"$$$$$$$$$$$$$$$$$$$$$$$$$$$$$$$$",
"$$$$$$$$$$$$$$$$$$$$$$$$$$$$$$$$",
"$$$$$$$$$$$$$$$$$$$$$$$$$$$$$$$$",
"$$$$$$$$$$$$$$$$$$$$$$$$$$$$$$$$",
"$$$$$$$$$$$$$$$$$$$$$$$$$$$$$$$$",
"$$$$$$$$$$$$$$$$$$$$$$$$$$$$$$$$",
"$$$$$$$$$$$$$$$$$$$$$$$$$$$$$$$$"
};
