/* XPM */
static char *result[] = {
/* columns rows colors chars-per-pixel */
"32 32 6 1 ",
"  c #353540",
". c #735B42",
"X c #EEB551",
"o c #BFB8B4",
"O c #EDE4DA",
"+ c None",
/* pixels */
"++++++++++++++++++++++++++++++++",
"++++++++++++++ ++ ++++++++++++++",
"++++++++++++++ ++ ++++++++++++++",
"++++++++++++++    ++++++++++++++",
"++++++++++++ + XX + ++++++++++++",
"++++++++++++++ XX ++++++++++++++",
"++++++++++++ + XX + ++++++++++++",
"++++++++++++ + .. + ++++++++++++",
"++++++++++++   ..   ++++++++++++",
"++++++++++++ X .. X ++++++++++++",
"++++++++++++ X .. X ++++++++++++",
"++++++++++++ XX..XX ++++++++++++",
"++++++++++++ XXXXXX ++++++++++++",
"++++++++++++  XooX  ++++++++++++",
"+++++++++++++ oooo +++++++++++++",
"+++++++++++++ oooo +++++++++++++",
"+++++++++++++ oooo +++++++++++++",
"+++++++++++++ oooo +++++++++++++",
"+++++++++++++ oooo +++++++++++++",
"+++++++++++++ oooo +++++++++++++",
"+++++++++++++ oooo +++++++++++++",
"+++++++++++++ oooo +++++++++++++",
"+++++++++++++ oooo +++++++++++++",
"+++++++++++++ OOoo +++++++++++++",
"+++++++++++++  OO  +++++++++++++",
"++++++++++++++    ++++++++++++++",
"++++++++++++++++++++++++++++++++",
"++++++++++++++++++++++++++++++++",
"++++++++++++++++++++++++++++++++",
"++++++++++++++++++++++++++++++++",
"++++++++++++++++++++++++++++++++",
"++++++++++++++++++++++++++++++++"
};
