/* XPM */
static char *result[] = {
/* columns rows colors chars-per-pixel */
"32 32 2 1 ",
"  c #A8A129",
". c #ADBC3A",
/* pixels */
"................................",
"................................",
"................................",
"............  ............ .....",
"........  . .. ........... . ...",
"....... .. ..  ............. ...",
"........ . .    ................",
".......... .   .................",
"................................",
"..  ..  ............. ..........",
". ..  .. .......... . . ........",
".. . .. ........... ... ........",
".... .   .......................",
"......  ........................",
"................................",
"................................",
"................................",
"................................",
"................................",
".........   ................  ..",
"........ ... ...........  . .. .",
"....... ...   ......... .. ..  .",
"..........   ........... . .    ",
".......................... .   .",
"...    .........................",
".. .... ..........  ..  ........",
"... .... ........ ..  .. .......",
"...  ... ......... . .. ........",
"..   ............... .   .......",
"....  ................  ........",
"................................",
"................................"
};
