/* XPM */
static char *result[] = {
/* columns rows colors chars-per-pixel */
"32 32 7 1 ",
"  c #353540",
". c #EEB551",
"X c #5C699F",
"o c #BDAA97",
"O c #D2C1B1",
"+ c #EDE4DA",
"@ c None",
/* pixels */
"@@@@@@@@@@@@@@@@@@@@@@@@@@@@@@@@",
"@@@@@@@@@@@@@@@@@@@@@@@@@@@@@@@@",
"@@@@@@@@@@@@@@@@@@@@@@@@@@@@@@@@",
"@@@@@@@@@@@@@@@@@@@@@@@@@@@@@@@@",
"@@@@@@@@@@@@@@@@@@@@@@@@@@@@@@@@",
"@@@@@@@@@@@@@@@@@@@@@@@@@@@@@@@@",
"@@@@@@@@@@@@@@@@@@@@@@@@@@@@@@@@",
"@@@@@@@@@@@@     @@@@@@@@@@@@@@@",
"@@@@@@@@@@@@ .XX  @@@@@@@@@@@@@@",
"@@@@@@@@@@@@  XXX  @@@@@@@@@@@@@",
"@@@@@@@@@@@@  X.XX  @@@@@@@@@@@@",
"@@@@@@@@@@@  XXXXXX  @@@@@@@@@@@",
"@@@@@@@@@   XXXXX.XX   @@@@@@@@@",
"@@@@@@@@@ XXX.XXXXXXX. @@@@@@@@@",
"@@@@@@@@@  ++OOOOOOO+  @@@@@@@@@",
"@@@@@@@@@@ ++O  OoO + @@@@@@@@@@",
"@@@@@@@@@@  +O  OOO   @@@@@@@@@@",
"@@@@@@@@@@@ +OOOOOOO @@@@@@@@@@@",
"@@@@@@@@@@@ ++OO+++O @@@@@@@@@@@",
"@@@@@@@@@@@ ++++++++ @@@@@@@@@@@",
"@@@@@@@@@@@ .XX+++++ @@@@@@@@@@@",
"@@@@@@@@@@  XXX.+++. @@@@@@@@@@@",
"@@@@@@@@@  XXXXX+++X @@@@@@@@@@@",
"@@@@@@@@@ XXX.XXXXXX @@@@@@@@@@@",
"@@@@@@@@@ .XXXXXX.XX @@@@@@@@@@@",
"@@@@@@@@@            @@@@@@@@@@@",
"@@@@@@@@@@@@@@@@@@@@@@@@@@@@@@@@",
"@@@@@@@@@@@@@@@@@@@@@@@@@@@@@@@@",
"@@@@@@@@@@@@@@@@@@@@@@@@@@@@@@@@",
"@@@@@@@@@@@@@@@@@@@@@@@@@@@@@@@@",
"@@@@@@@@@@@@@@@@@@@@@@@@@@@@@@@@",
"@@@@@@@@@@@@@@@@@@@@@@@@@@@@@@@@"
};
