/* XPM */
static char *result[] = {
/* columns rows colors chars-per-pixel */
"32 32 4 1 ",
"  c #353540",
". c #735B42",
"X c #EDE4DA",
"o c None",
/* pixels */
"oooooooooooooooooooooooooooooooo",
"oooooooooooooooooooooooooooooooo",
"oooooooooooooooooooooooooooooooo",
"oooooooooooooooooooooooooooooooo",
"oooooooooooooo    oooooooooooooo",
"oooooooooooooo XX  ooooooooooooo",
"ooooooooooooo  .XX ooooooooooooo",
"ooooooooooooo .... ooooooooooooo",
"ooooooooooooo .... ooooooooooooo",
"ooooooooooooo .... ooooooooooooo",
"ooooooooooooo ...  ooooooooooooo",
"ooooooooooooo  .. oooooooooooooo",
"oooooooooooooo .. oooooooooooooo",
"oooooooooooooo .. oooooooooooooo",
"oooooooooooooo .. oooooooooooooo",
"oooooooooooooo .. oooooooooooooo",
"oooooooooooooo .. oooooooooooooo",
"oooooooooooooo .. oooooooooooooo",
"oooooooooooooo .. oooooooooooooo",
"oooooooooooooo .. oooooooooooooo",
"oooooooooooooo .. oooooooooooooo",
"oooooooooooooo .. oooooooooooooo",
"oooooooooooooo .. oooooooooooooo",
"oooooooooooooo .. oooooooooooooo",
"oooooooooooooo .. oooooooooooooo",
"oooooooooooooo .. oooooooooooooo",
"oooooooooooooo .. oooooooooooooo",
"oooooooooooooo    oooooooooooooo",
"oooooooooooooooooooooooooooooooo",
"oooooooooooooooooooooooooooooooo",
"oooooooooooooooooooooooooooooooo",
"oooooooooooooooooooooooooooooooo"
};
